# xmcd CD database file
#
# Track frame offsets:
#	150
#	13812
#	30358
#	42286
#	51608
#	67527
#	85797
#	97270
#	108747
#	121251
#
# Disc length: 1789 seconds
#
# Revision: 0
# Processed by: cddbd v1.5.2PL0 Copyright (c) Steve Scherf et al.
# Submitted via: CDex 1.50
#
DISCID=7f06fb0a
DTITLE=Willie Nelson - American Classics - Willie and Partners
DYEAR=2006
DGENRE=Country
TTITLE0=Heartbreak hotel
TTITLE1=Don't you ever get tired
TTITLE2=Waltz across texas
TTITLE3=Something to brag about
TTITLE4=Reasons to quit
TTITLE5=Night life
TTITLE6=Hello walls
TTITLE7=Just out of reach
TTITLE8=You nearly lose your mind
TTITLE9=Just a closer walk
EXTD=YEAR: 2006
EXTT0=
EXTT1=
EXTT2=
EXTT3=
EXTT4=
EXTT5=
EXTT6=
EXTT7=
EXTT8=
EXTT9=
PLAYORDER=
